# xmcd
#
# Track frame offsets:
#	150
#	20089
#	34148
#	50865
#	69663
#	86747
#	103268
#	116134
#	132581
#	158871
#	183872
#	208639
#	231009
#
# Disc length: 3357 seconds
#
# Revision: 0
# Processed by: cddbd v1.5.2PL0 Copyright (c) Steve Scherf et al.
# Submitted via: EasyCDDAExtractor 10.5.1.1
#
DISCID=c10d1b0d
DTITLE=RockustiX - Höcklixe
DYEAR=2007
DGENRE=Blues
TTITLE0=All our past times (Eric Clapton)
TTITLE1=Hey good looking (Hank Williams)
TTITLE2=Sweet Virginia (Rolling Stones)
TTITLE3=One more bottle of beer (Steve Grant Hardy)
TTITLE4=The way we make a broken heart (John Hiatt)
TTITLE5=Shape I'm in (Charlie Sexton)
TTITLE6=Bella Ciao (Traditional)
TTITLE7=Stell mi uf (Schöre Müller)
TTITLE8=Willin' (Lowell George)
TTITLE9=You ain't got the right (Dr. Hook)
TTITLE10=Fourth of July (Dave Alvin)
TTITLE11=I ain't living long like this (Rodney Crowell)
TTITLE12=Louenesee (Schöre Müller)
EXTD=
EXTT0=
EXTT1=
EXTT2=
EXTT3=
EXTT4=
EXTT5=
EXTT6=
EXTT7=
EXTT8=
EXTT9=
EXTT10=
EXTT11=
EXTT12=
PLAYORDER=
